<?xml version="1.0" encoding="UTF-8"?> <svg xmlns="http://www.w3.org/2000/svg" width="93" height="85" viewBox="0 0 93 85" fill="none"> <rect y="0.277344" width="93" height="84" rx="8" fill="url(#paint0_linear_386_3709)"></rect> <path fill-rule="evenodd" clip-rule="evenodd" d="M40.0327 33.6316C39.8494 33.6316 39.6737 33.7048 39.5446 33.835L31.5833 41.7962C31.4504 41.921 31.375 42.0951 31.375 42.2775C31.375 42.4598 31.4504 42.6339 31.5833 42.7587L39.5446 50.72C39.6737 50.8501 39.8494 50.9233 40.0327 50.9233C40.216 50.9233 40.3917 50.8501 40.5208 50.72L40.7958 50.445C40.9301 50.3156 41.0048 50.1364 41.0021 49.95V46.4025H44.4396C44.8193 46.4025 45.1271 46.0946 45.1271 45.715V38.84C45.1271 38.4603 44.8193 38.1525 44.4396 38.1525H41.0021V34.605C41.0048 34.4185 40.9301 34.2393 40.7958 34.11L40.5208 33.835C40.3917 33.7048 40.216 33.6316 40.0327 33.6316ZM61.6292 42.2775C61.6292 42.0951 61.5538 41.921 61.4208 41.7962L53.4596 33.835C53.3305 33.7048 53.1548 33.6316 52.9715 33.6316C52.7881 33.6316 52.6124 33.7048 52.4833 33.835L52.2083 34.11C52.0741 34.2393 51.9994 34.4185 52.0021 34.605V38.1525H48.5646C48.1849 38.1525 47.8771 38.4603 47.8771 38.84V45.715C47.8771 46.0946 48.1849 46.4025 48.5646 46.4025H52.0021V49.95C51.9994 50.1364 52.0741 50.3156 52.2083 50.445L52.4833 50.72C52.6124 50.8501 52.7881 50.9233 52.9715 50.9233C53.1548 50.9233 53.3305 50.8501 53.4596 50.72L61.4208 42.7587C61.5538 42.6339 61.6292 42.4598 61.6292 42.2775Z" fill="white"></path> <defs> <linearGradient id="paint0_linear_386_3709" x1="84.667" y1="1.69655" x2="49.4374" y2="94.972" gradientUnits="userSpaceOnUse"> <stop stop-color="#765CF6"></stop> <stop offset="1" stop-color="#F976DC"></stop> </linearGradient> </defs> </svg> 