<?xml version="1.0" encoding="UTF-8"?> <svg xmlns="http://www.w3.org/2000/svg" width="111" height="50" viewBox="0 0 111 50" fill="none"> <path d="M74.12 1C73.933 7.7156 71.1338 14.0934 66.3176 18.7773C61.5015 23.4612 55.0482 26.0817 48.33 26.0817C41.6118 26.0817 35.1586 23.4612 30.3424 18.7773C25.5262 14.0934 22.7271 7.7156 22.54 1H0C0 13.8179 5.09188 26.1108 14.1555 35.1745C23.2192 44.2381 35.5121 49.33 48.33 49.33C61.1479 49.33 73.4408 44.2381 82.5045 35.1745C91.5681 26.1108 96.66 13.8179 96.66 1H74.12Z" fill="url(#paint0_linear_424_9276)"></path> <path d="M87.8565 1C87.7235 7.75331 84.9475 14.1852 80.1245 18.9142C75.3014 23.6431 68.8161 26.2921 62.0615 26.2921C55.3069 26.2921 48.8217 23.6431 43.9987 18.9142C39.1756 14.1852 36.3995 7.75331 36.2665 1H13.7266C13.9839 13.6477 19.1888 25.6905 28.2244 34.5442C37.26 43.3979 49.4062 48.3568 62.0565 48.3568C74.7068 48.3568 86.8531 43.3979 95.8887 34.5442C104.924 25.6905 110.129 13.6477 110.387 1H87.8565Z" stroke="white" stroke-miterlimit="10"></path> <defs> <linearGradient id="paint0_linear_424_9276" x1="87.9991" y1="1.81655" x2="75.7148" y2="60.5705" gradientUnits="userSpaceOnUse"> <stop stop-color="#765CF6"></stop> <stop offset="1" stop-color="#F976DC"></stop> </linearGradient> </defs> </svg> 