<?xml version="1.0" encoding="UTF-8"?> <svg xmlns="http://www.w3.org/2000/svg" width="131" height="131" viewBox="0 0 131 131" fill="none"> <path d="M76.314 17.9281C75.0667 17.5718 73.7904 17.3261 72.5 17.1939L75.1923 0C76.9408 0.209012 78.6721 0.542997 80.3729 0.999401L76.314 17.9281Z" fill="url(#paint0_linear_424_9302)"></path> <path d="M87.302 21.9666C86.119 21.4159 84.9564 20.804 83.7734 20.2941L90.443 4.22205C92.0543 4.89511 93.6248 5.71095 95.2156 6.46561L87.302 21.9666Z" fill="url(#paint1_linear_424_9302)"></path> <path d="M97.0017 28.4525C96.0199 27.5945 94.9918 26.791 93.9219 26.0458L104.12 11.9725C105.507 13.0739 106.996 14.0121 108.199 15.2359L97.0017 28.4525Z" fill="url(#paint2_linear_424_9302)"></path> <path d="M104.93 37.0596C104.18 35.9934 103.377 34.9655 102.523 33.9798L115.76 22.6804C116.964 23.9449 117.922 25.4338 119.003 26.7596L104.93 37.0596Z" fill="url(#paint3_linear_424_9302)"></path> <path d="M110.691 47.2373C110.202 46.034 109.569 44.8918 109.039 43.7088L124.54 35.7952C125.295 37.3861 126.09 38.9566 126.784 40.5678L110.691 47.2373Z" fill="url(#paint4_linear_424_9302)"></path> <path d="M113.809 58.4959C113.66 57.1997 113.408 55.9175 113.055 54.6615L129.983 50.5823C130.445 52.2761 130.785 54.0005 131.003 55.7425L113.809 58.4959Z" fill="url(#paint5_linear_424_9302)"></path> <path d="M65.5774 130.698C57.0211 130.85 48.5202 129.296 40.5709 126.127C32.6216 122.958 25.3833 118.237 19.2785 112.24C13.1737 106.243 8.32481 99.0898 5.01479 91.1982C1.70478 83.3066 0 74.8347 0 66.277C0 57.7193 1.70478 49.2474 5.01479 41.3557C8.32481 33.4641 13.1737 26.311 19.2785 20.3138C25.3833 14.3167 32.6216 9.59582 40.5709 6.42673C48.5202 3.25764 57.0211 1.70386 65.5774 1.85612V13.7674C55.19 13.7674 45.0358 16.8476 36.399 22.6186C27.7621 28.3895 21.0306 36.592 17.0555 46.1887C13.0804 55.7855 12.0403 66.3454 14.0668 76.5333C16.0933 86.7211 21.0953 96.0792 28.4403 103.424C35.7853 110.769 45.1434 115.771 55.3313 117.798C65.5191 119.824 76.0791 118.784 85.6758 114.809C95.2726 110.834 103.475 104.102 109.246 95.4656C115.017 86.8288 118.097 76.6746 118.097 66.2872H130.008C129.987 83.3668 123.191 99.7405 111.112 111.816C99.0328 123.891 82.6571 130.682 65.5774 130.698Z" fill="url(#paint6_linear_424_9302)"></path> <defs> <linearGradient id="paint0_linear_424_9302" x1="132.383" y1="-50.113" x2="58.631" y2="26.8415" gradientUnits="userSpaceOnUse"> <stop stop-color="#FFD4AB"></stop> <stop offset="0.05" stop-color="#FCCEAB"></stop> <stop offset="0.12" stop-color="#F5BDAD"></stop> <stop offset="0.2" stop-color="#E8A1AF"></stop> <stop offset="0.29" stop-color="#D67BB1"></stop> <stop offset="0.38" stop-color="#BF49B5"></stop> <stop offset="0.41" stop-color="#B635B6"></stop> <stop offset="0.43" stop-color="#AE33B0"></stop> <stop offset="0.71" stop-color="#522073"></stop> <stop offset="0.91" stop-color="#19154D"></stop> <stop offset="1" stop-color="#03103E"></stop> </linearGradient> <linearGradient id="paint1_linear_424_9302" x1="141.27" y1="-41.6078" x2="67.5384" y2="35.3466" gradientUnits="userSpaceOnUse"> <stop stop-color="#FFD4AB"></stop> <stop offset="0.05" stop-color="#FCCEAB"></stop> <stop offset="0.12" stop-color="#F5BDAD"></stop> <stop offset="0.2" stop-color="#E8A1AF"></stop> <stop offset="0.29" stop-color="#D67BB1"></stop> <stop offset="0.38" stop-color="#BF49B5"></stop> <stop offset="0.41" stop-color="#B635B6"></stop> <stop offset="0.43" stop-color="#AE33B0"></stop> <stop offset="0.71" stop-color="#522073"></stop> <stop offset="0.91" stop-color="#19154D"></stop> <stop offset="1" stop-color="#03103E"></stop> </linearGradient> <linearGradient id="paint2_linear_424_9302" x1="150.949" y1="-32.3277" x2="77.1971" y2="44.6265" gradientUnits="userSpaceOnUse"> <stop stop-color="#FFD4AB"></stop> <stop offset="0.05" stop-color="#FCCEAB"></stop> <stop offset="0.12" stop-color="#F5BDAD"></stop> <stop offset="0.2" stop-color="#E8A1AF"></stop> <stop offset="0.29" stop-color="#D67BB1"></stop> <stop offset="0.38" stop-color="#BF49B5"></stop> <stop offset="0.41" stop-color="#B635B6"></stop> <stop offset="0.43" stop-color="#AE33B0"></stop> <stop offset="0.71" stop-color="#522073"></stop> <stop offset="0.91" stop-color="#19154D"></stop> <stop offset="1" stop-color="#03103E"></stop> </linearGradient> <linearGradient id="paint3_linear_424_9302" x1="161.345" y1="-22.3745" x2="87.5934" y2="54.5796" gradientUnits="userSpaceOnUse"> <stop stop-color="#FFD4AB"></stop> <stop offset="0.05" stop-color="#FCCEAB"></stop> <stop offset="0.12" stop-color="#F5BDAD"></stop> <stop offset="0.2" stop-color="#E8A1AF"></stop> <stop offset="0.29" stop-color="#D67BB1"></stop> <stop offset="0.38" stop-color="#BF49B5"></stop> <stop offset="0.41" stop-color="#B635B6"></stop> <stop offset="0.43" stop-color="#AE33B0"></stop> <stop offset="0.71" stop-color="#522073"></stop> <stop offset="0.91" stop-color="#19154D"></stop> <stop offset="1" stop-color="#03103E"></stop> </linearGradient> <linearGradient id="paint4_linear_424_9302" x1="170.921" y1="-13.1961" x2="97.1891" y2="63.7583" gradientUnits="userSpaceOnUse"> <stop stop-color="#FFD4AB"></stop> <stop offset="0.05" stop-color="#FCCEAB"></stop> <stop offset="0.12" stop-color="#F5BDAD"></stop> <stop offset="0.2" stop-color="#E8A1AF"></stop> <stop offset="0.29" stop-color="#D67BB1"></stop> <stop offset="0.38" stop-color="#BF49B5"></stop> <stop offset="0.41" stop-color="#B635B6"></stop> <stop offset="0.43" stop-color="#AE33B0"></stop> <stop offset="0.71" stop-color="#522073"></stop> <stop offset="0.91" stop-color="#19154D"></stop> <stop offset="1" stop-color="#03103E"></stop> </linearGradient> <linearGradient id="paint5_linear_424_9302" x1="179.607" y1="-4.85409" x2="105.875" y2="72.1" gradientUnits="userSpaceOnUse"> <stop stop-color="#FFD4AB"></stop> <stop offset="0.05" stop-color="#FCCEAB"></stop> <stop offset="0.12" stop-color="#F5BDAD"></stop> <stop offset="0.2" stop-color="#E8A1AF"></stop> <stop offset="0.29" stop-color="#D67BB1"></stop> <stop offset="0.38" stop-color="#BF49B5"></stop> <stop offset="0.41" stop-color="#B635B6"></stop> <stop offset="0.43" stop-color="#AE33B0"></stop> <stop offset="0.71" stop-color="#522073"></stop> <stop offset="0.91" stop-color="#19154D"></stop> <stop offset="1" stop-color="#03103E"></stop> </linearGradient> <linearGradient id="paint6_linear_424_9302" x1="118.359" y1="4.02309" x2="60.5263" y2="143.556" gradientUnits="userSpaceOnUse"> <stop stop-color="#765CF6"></stop> <stop offset="1" stop-color="#F976DC"></stop> </linearGradient> </defs> </svg> 