<?xml version="1.0" encoding="UTF-8"?> <svg xmlns="http://www.w3.org/2000/svg" width="81" height="73" viewBox="0 0 81 73" fill="none"> <path fill-rule="evenodd" clip-rule="evenodd" d="M13.5 19.5361V17.5361H9.5V19.5361V27.0264H2H0V31.0264H2H9.5V38.5359V40.5359H13.5V38.5359V31.0264H20.9998H22.9998V27.0264H20.9998H13.5V19.5361Z" fill="url(#paint0_linear_386_4601)"></path> <path fill-rule="evenodd" clip-rule="evenodd" d="M42.8516 1V0H40.8516V1V4.62939H37.2188H36.2188V6.62939H37.2188H40.8516V10.2682V11.2682H42.8516V10.2682V6.62939H46.4869H47.4869V4.62939H46.4869H42.8516V1Z" fill="url(#paint1_linear_386_4601)"></path> <path fill-rule="evenodd" clip-rule="evenodd" d="M64.7422 38.0728V35.5728H59.7422V38.0728V51.313H46.4922H43.9922V56.313H46.4922H59.7422V69.5846V72.0846H64.7422V69.5846V56.313H78.0041H80.5041V51.313H78.0041H64.7422V38.0728Z" fill="url(#paint2_linear_386_4601)"></path> <defs> <linearGradient id="paint0_linear_386_4601" x1="20.939" y1="17.9247" x2="10.5521" y2="42.7641" gradientUnits="userSpaceOnUse"> <stop stop-color="#765CF6"></stop> <stop offset="1" stop-color="#F976DC"></stop> </linearGradient> <linearGradient id="paint1_linear_386_4601" x1="46.4773" y1="0.19038" x2="41.3885" y2="12.3598" gradientUnits="userSpaceOnUse"> <stop stop-color="#765CF6"></stop> <stop offset="1" stop-color="#F976DC"></stop> </linearGradient> <linearGradient id="paint2_linear_386_4601" x1="77.2325" y1="36.1896" x2="60.7435" y2="75.6218" gradientUnits="userSpaceOnUse"> <stop stop-color="#765CF6"></stop> <stop offset="1" stop-color="#F976DC"></stop> </linearGradient> </defs> </svg> 