<?xml version="1.0" encoding="UTF-8"?> <svg xmlns="http://www.w3.org/2000/svg" width="124" height="129" viewBox="0 0 124 129" fill="none"> <rect opacity="0.2" width="71.5914" height="71.5914" transform="matrix(0.866025 0.5 -0.866025 0.5 62 57.2732)" fill="url(#paint0_linear_424_9285)"></rect> <rect opacity="0.4" width="71.5914" height="71.5914" transform="matrix(0.866025 0.5 -0.866025 0.5 62 42.9548)" fill="url(#paint1_linear_424_9285)"></rect> <rect opacity="0.6" width="71.5914" height="71.5914" transform="matrix(0.866025 0.5 -0.866025 0.5 62 28.6367)" fill="url(#paint2_linear_424_9285)"></rect> <rect opacity="0.8" width="71.5914" height="71.5914" transform="matrix(0.866025 0.5 -0.866025 0.5 62 14.3184)" fill="url(#paint3_linear_424_9285)"></rect> <rect width="71.5914" height="71.5914" transform="matrix(0.866025 0.5 -0.866025 0.5 62 0)" fill="url(#paint4_linear_424_9285)"></rect> <defs> <linearGradient id="paint0_linear_424_9285" x1="65.1767" y1="1.20956" x2="32.8455" y2="78.527" gradientUnits="userSpaceOnUse"> <stop stop-color="#765CF6"></stop> <stop offset="1" stop-color="#F976DC"></stop> </linearGradient> <linearGradient id="paint1_linear_424_9285" x1="65.1767" y1="1.20956" x2="32.8455" y2="78.527" gradientUnits="userSpaceOnUse"> <stop stop-color="#765CF6"></stop> <stop offset="1" stop-color="#F976DC"></stop> </linearGradient> <linearGradient id="paint2_linear_424_9285" x1="65.1767" y1="1.20956" x2="32.8455" y2="78.527" gradientUnits="userSpaceOnUse"> <stop stop-color="#765CF6"></stop> <stop offset="1" stop-color="#F976DC"></stop> </linearGradient> <linearGradient id="paint3_linear_424_9285" x1="65.1767" y1="1.20956" x2="32.8455" y2="78.527" gradientUnits="userSpaceOnUse"> <stop stop-color="#765CF6"></stop> <stop offset="1" stop-color="#F976DC"></stop> </linearGradient> <linearGradient id="paint4_linear_424_9285" x1="65.1767" y1="1.20956" x2="32.8455" y2="78.527" gradientUnits="userSpaceOnUse"> <stop stop-color="#765CF6"></stop> <stop offset="1" stop-color="#F976DC"></stop> </linearGradient> </defs> </svg> 