<?xml version="1.0" encoding="UTF-8"?> <svg xmlns="http://www.w3.org/2000/svg" width="79" height="72" viewBox="0 0 79 72" fill="none"> <rect width="79" height="72" rx="8" fill="url(#paint0_linear_440_24978)"></rect> <path d="M35.7383 39.1207C37.9126 40.6351 40.7734 40.5467 42.9772 39.1207C45.5198 37.4826 46.7425 34.5776 46.7072 31.7757C46.6718 28.9738 45.4786 25.8832 42.8064 24.3129C41.7353 23.676 40.507 23.3524 39.2611 23.379C38.0153 23.4055 36.8019 23.7812 35.759 24.4632C32.5181 26.6198 31.6342 30.9243 32.5181 34.3389" stroke="white" stroke-width="3" stroke-linecap="round" stroke-linejoin="round"></path> <path d="M31.0802 32.6046L47.8292 32.5023C48.5147 32.4981 49.0738 33.0504 49.078 33.7359L49.1576 46.761C49.1618 47.4465 48.6095 48.0056 47.924 48.0098L31.1749 48.1121C30.4894 48.1163 29.9303 47.5639 29.9261 46.8784L29.8466 33.8534C29.8424 33.1679 30.3947 32.6088 31.0802 32.6046Z" fill="white" stroke="white"></path> <path fill-rule="evenodd" clip-rule="evenodd" d="M41.4918 38.9486C41.7532 38.5521 41.8912 38.087 41.8883 37.6121C41.8863 37.2968 41.8223 36.9849 41.6999 36.6943C41.5774 36.4037 41.3989 36.1401 41.1746 35.9185C40.9502 35.6969 40.6844 35.5216 40.3924 35.4028C40.1003 35.2839 39.7877 35.2237 39.4723 35.2256C38.9974 35.2286 38.5341 35.3722 38.1408 35.6385C37.7476 35.9048 37.4422 36.2817 37.2631 36.7215C37.0841 37.1614 37.0395 37.6445 37.135 38.1097C37.2305 38.5749 37.4618 39.0013 37.7997 39.335C37.9489 39.4824 38.1159 39.6088 38.296 39.7117L37.9922 44.4152L40.8883 44.3975L40.5341 39.7877C40.9223 39.5996 41.2534 39.31 41.4918 38.9486Z" fill="url(#paint1_linear_440_24978)"></path> <defs> <linearGradient id="paint0_linear_440_24978" x1="71.9214" y1="1.21647" x2="41.5205" y2="80.9859" gradientUnits="userSpaceOnUse"> <stop stop-color="#765CF6"></stop> <stop offset="1" stop-color="#F976DC"></stop> </linearGradient> <linearGradient id="paint1_linear_440_24978" x1="41.458" y1="35.3808" x2="35.7699" y2="42.4894" gradientUnits="userSpaceOnUse"> <stop stop-color="#765CF6"></stop> <stop offset="1" stop-color="#F976DC"></stop> </linearGradient> </defs> </svg> 