<?xml version="1.0" encoding="UTF-8"?> <svg xmlns="http://www.w3.org/2000/svg" width="79" height="106" viewBox="0 0 79 106" fill="none"> <path fill-rule="evenodd" clip-rule="evenodd" d="M39.5 0L79 71.8064H69.5952L79 88.9032H69.5952L79 106H0L9.40477 88.9032H0L9.40477 71.8064H0L39.5 0ZM11.286 71.8064L2.79227 87.247H10.3159L18.8095 71.8064H11.286ZM19.7206 70.1502H12.197L39.5 20.5166L66.803 70.1502H59.2794L39.5 34.1936L19.7206 70.1502ZM20.6907 71.8064L12.197 87.247H66.803L58.3093 71.8064H20.6907ZM57.3982 70.1502H21.6018L39.5 37.6133L57.3982 70.1502ZM60.1905 71.8064L68.6841 87.247H76.2077L67.714 71.8064H60.1905ZM68.6841 70.1502L39.5 17.0968L10.3159 70.1502H2.79227L39.5 3.41977L76.2077 70.1502H68.6841ZM2.79227 104.344L11.286 88.9032H67.714L76.2077 104.344H2.79227Z" fill="url(#paint0_linear_430_9427)"></path> <defs> <linearGradient id="paint0_linear_430_9427" x1="71.9214" y1="1.79091" x2="14.5271" y2="104.084" gradientUnits="userSpaceOnUse"> <stop stop-color="#765CF6"></stop> <stop offset="1" stop-color="#F976DC"></stop> </linearGradient> </defs> </svg> 