<?xml version="1.0" encoding="UTF-8"?> <svg xmlns="http://www.w3.org/2000/svg" width="116" height="116" viewBox="0 0 116 116" fill="none"> <path fill-rule="evenodd" clip-rule="evenodd" d="M116 58C116 25.9675 90.0325 0 58 0C25.9675 0 0 25.9675 0 58C0 90.0325 25.9675 116 58 116C90.0325 116 116 90.0325 116 58ZM50.75 58C50.75 83.4534 52.7995 105.077 55.6504 112.886C55.1121 112.328 54.5302 111.559 53.9163 110.52C52.3087 107.8 50.7981 103.744 49.5053 98.5726C46.9267 88.2581 45.3125 73.9127 45.3125 58C45.3125 42.0873 46.9267 27.7419 49.5053 17.4274C50.7981 12.2562 52.3087 8.19997 53.9163 5.48018C54.5302 4.44145 55.1121 3.67199 55.6504 3.11377C52.7995 10.9226 50.75 32.5465 50.75 58ZM62.0837 110.52C61.4698 111.559 60.8879 112.328 60.3496 112.886C63.2005 105.077 65.25 83.4535 65.25 58C65.25 32.5465 63.2005 10.9226 60.3496 3.11376C60.8879 3.67198 61.4698 4.44144 62.0837 5.48018C63.6913 8.19997 65.2019 12.2562 66.4947 17.4274C69.0733 27.7419 70.6875 42.0873 70.6875 58C70.6875 73.9127 69.0733 88.2581 66.4947 98.5726C65.2019 103.744 63.6913 107.8 62.0837 110.52ZM52.705 112.011C52.1011 111.512 51.4956 110.922 50.8901 110.24C48.4875 107.53 46.2409 103.505 44.3175 98.3758C40.4757 88.131 38.0625 73.8565 38.0625 58C38.0625 42.1435 40.4757 27.869 44.3175 17.6242C46.2409 12.4952 48.4875 8.47034 50.8901 5.76035C51.4956 5.0775 52.1011 4.48824 52.705 3.98873C47.3157 12.4487 43.5 33.4419 43.5 58C43.5 82.5581 47.3157 103.551 52.705 112.011ZM63.295 112.011C63.8989 111.512 64.5044 110.923 65.1099 110.24C67.5125 107.53 69.7591 103.505 71.6825 98.3758C75.5243 88.131 77.9375 73.8565 77.9375 58C77.9375 42.1435 75.5243 27.869 71.6825 17.6242C69.7591 12.4952 67.5125 8.47034 65.1099 5.76035C64.5044 5.0775 63.8989 4.48823 63.295 3.98872C68.6843 12.4487 72.5 33.4419 72.5 58C72.5 82.5581 68.6843 103.551 63.295 112.011ZM39.1151 98.2016C42.0589 104.089 45.5351 108.468 49.2711 111.14C41.6048 102.172 36.25 81.7538 36.25 58C36.25 34.2462 41.6048 13.8275 49.2711 4.8599C45.5351 7.53174 42.0589 11.9106 39.1151 17.7984C34.0176 27.9932 30.8125 42.2041 30.8125 58C30.8125 73.7959 34.0176 88.0068 39.1151 98.2016ZM76.8849 98.2016C73.9411 104.089 70.4649 108.468 66.7289 111.14C74.3952 102.172 79.75 81.7538 79.75 58C79.75 34.2462 74.3952 13.8276 66.7289 4.8599C70.4649 7.53175 73.9411 11.9106 76.8849 17.7984C81.9824 27.9932 85.1875 42.2041 85.1875 58C85.1875 73.7959 81.9824 88.0068 76.8849 98.2016ZM45.4427 110.295C41.1501 107.531 37.228 103.369 33.9044 98.0516C27.5512 87.8865 23.5625 73.7309 23.5625 58C23.5625 42.2691 27.5512 28.1135 33.9044 17.9484C37.228 12.6306 41.1501 8.46881 45.4427 5.70465C35.7145 15.0655 29 34.9645 29 58C29 81.0355 35.7145 100.934 45.4427 110.295ZM70.5573 110.295C74.8499 107.531 78.772 103.369 82.0956 98.0516C88.4488 87.8865 92.4375 73.7309 92.4375 58C92.4375 42.2691 88.4488 28.1135 82.0956 17.9484C78.772 12.6306 74.8499 8.4688 70.5573 5.70464C80.2855 15.0655 87 34.9645 87 58C87 81.0355 80.2855 100.934 70.5573 110.295ZM28.6909 97.9247C32.3196 102.763 36.5767 106.683 41.2636 109.462C29.6673 99.7873 21.75 80.373 21.75 58C21.75 35.627 29.6673 16.2127 41.2636 6.53829C36.5767 9.31668 32.3196 13.237 28.6909 18.0753C21.076 28.2285 16.3125 42.338 16.3125 58C16.3125 73.662 21.076 87.7715 28.6909 97.9247ZM87.3091 97.9247C83.6804 102.763 79.4233 106.683 74.7364 109.462C86.3327 99.7873 94.25 80.373 94.25 58C94.25 35.627 86.3327 16.2127 74.7364 6.53828C79.4233 9.31667 83.6804 13.2369 87.3091 18.0753C94.924 28.2285 99.6875 42.338 99.6875 58C99.6875 73.662 94.924 87.7715 87.3091 97.9247ZM36.7241 108.601C20.4226 99.546 9.0625 80.4017 9.0625 58C9.0625 35.5983 20.4226 16.454 36.7241 7.39901C23.4609 17.3344 14.5 36.2719 14.5 58C14.5 79.7281 23.4609 98.6656 36.7241 108.601ZM79.2759 108.601C95.5774 99.546 106.938 80.4017 106.938 58C106.938 35.5983 95.5774 16.454 79.2759 7.39901C92.5391 17.3344 101.5 36.2719 101.5 58C101.5 79.7281 92.5391 98.6656 79.2759 108.601ZM1.8125 58C1.8125 79.6562 14.0644 98.4509 32.0148 107.831C17.1827 97.7068 7.25 79.179 7.25 58C7.25 36.821 17.1827 18.2932 32.0148 8.16931C14.0644 17.5491 1.8125 36.3438 1.8125 58ZM114.188 58C114.188 79.6562 101.936 98.4509 83.9852 107.831C98.8173 97.7068 108.75 79.179 108.75 58C108.75 36.821 98.8173 18.2933 83.9852 8.1693C101.936 17.5491 114.188 36.3438 114.188 58ZM61.328 98.7874C62.6281 88.3868 63.4375 73.9655 63.4375 58C63.4375 42.0345 62.6281 27.6132 61.328 17.2126C60.6764 11.9996 59.9098 7.86631 59.0838 5.07162C59.0243 4.87016 58.9651 4.67782 58.9062 4.49442V111.506C58.9651 111.322 59.0243 111.13 59.0838 110.928C59.9098 108.134 60.6764 104 61.328 98.7874ZM57.0938 4.49442V111.506C57.0349 111.322 56.9757 111.13 56.9162 110.928C56.0902 108.134 55.3236 104 54.672 98.7874C53.3719 88.3868 52.5625 73.9655 52.5625 58C52.5625 42.0345 53.3719 27.6132 54.672 17.2126C55.3236 11.9996 56.0902 7.86631 56.9162 5.07162C56.9757 4.87016 57.0349 4.67781 57.0938 4.49442Z" fill="url(#paint0_linear_424_9291)"></path> <defs> <linearGradient id="paint0_linear_424_9291" x1="105.606" y1="1.95986" x2="53.2197" y2="127.238" gradientUnits="userSpaceOnUse"> <stop stop-color="#765CF6"></stop> <stop offset="1" stop-color="#F976DC"></stop> </linearGradient> </defs> </svg> 